<!-- Admin Dashboard Mockup SVG -->
<svg width="1200" height="800" xmlns="http://www.w3.org/2000/svg">
  <!-- Background -->
  <rect width="1200" height="800" fill="#0f172a"/>
  
  <!-- Header -->
  <rect x="0" y="0" width="1200" height="80" fill="#1e293b"/>
  <text x="40" y="50" font-family="Arial, sans-serif" font-size="24" font-weight="bold" fill="white">
    DEH Admin Panel
  </text>
  <text x="1000" y="30" font-family="Arial, sans-serif" font-size="12" fill="#94a3b8">
    Admin: Mowlid Haibe
  </text>
  <text x="1000" y="50" font-family="Arial, sans-serif" font-size="12" fill="#64748b">
    malitmohamud@gmail.com
  </text>
  
  <!-- Sidebar -->
  <rect x="0" y="80" width="250" height="720" fill="#1e293b"/>
  <text x="20" y="120" font-family="Arial, sans-serif" font-size="16" fill="#cbd5e1">Admin Menu</text>
  <rect x="20" y="140" width="210" height="35" fill="#3b82f6" rx="4"/>
  <text x="35" y="162" font-family="Arial, sans-serif" font-size="14" fill="white">📊 Dashboard</text>
  <rect x="20" y="185" width="210" height="35" fill="#475569" rx="4"/>
  <text x="35" y="207" font-family="Arial, sans-serif" font-size="14" fill="#cbd5e1">👥 Students</text>
  <rect x="20" y="230" width="210" height="35" fill="#475569" rx="4"/>
  <text x="35" y="252" font-family="Arial, sans-serif" font-size="14" fill="#cbd5e1">📚 Courses</text>
  
  <!-- Main Content Area -->
  <rect x="270" y="100" width="900" height="680" fill="#0f172a"/>
  
  <!-- Analytics Cards -->
  <text x="300" y="140" font-family="Arial, sans-serif" font-size="28" font-weight="bold" fill="white">
    Analytics Overview
  </text>
  
  <!-- Card 1 - Total Students -->
  <rect x="300" y="160" width="200" height="120" fill="#1e293b" rx="8" stroke="#334155"/>
  <text x="320" y="185" font-family="Arial, sans-serif" font-size="14" fill="#94a3b8">Total Students</text>
  <text x="320" y="220" font-family="Arial, sans-serif" font-size="36" font-weight="bold" fill="#3b82f6">1,247</text>
  <text x="320" y="245" font-family="Arial, sans-serif" font-size="12" fill="#10b981">↗ +12% this month</text>
  
  <!-- Card 2 - Active Courses -->
  <rect x="520" y="160" width="200" height="120" fill="#1e293b" rx="8" stroke="#334155"/>
  <text x="540" y="185" font-family="Arial, sans-serif" font-size="14" fill="#94a3b8">Active Courses</text>
  <text x="540" y="220" font-family="Arial, sans-serif" font-size="36" font-weight="bold" fill="#8b5cf6">24</text>
  <text x="540" y="245" font-family="Arial, sans-serif" font-size="12" fill="#10b981">↗ +3 new courses</text>
  
  <!-- Card 3 - Completion Rate -->
  <rect x="740" y="160" width="200" height="120" fill="#1e293b" rx="8" stroke="#334155"/>
  <text x="760" y="185" font-family="Arial, sans-serif" font-size="14" fill="#94a3b8">Completion Rate</text>
  <text x="760" y="220" font-family="Arial, sans-serif" font-size="36" font-weight="bold" fill="#10b981">87%</text>
  <text x="760" y="245" font-family="Arial, sans-serif" font-size="12" fill="#10b981">↗ +5% improvement</text>
  
  <!-- Card 4 - Hub Centers -->
  <rect x="960" y="160" width="200" height="120" fill="#1e293b" rx="8" stroke="#334155"/>
  <text x="980" y="185" font-family="Arial, sans-serif" font-size="14" fill="#94a3b8">Learning Hubs</text>
  <text x="980" y="220" font-family="Arial, sans-serif" font-size="36" font-weight="bold" fill="#f59e0b">15</text>
  <text x="980" y="245" font-family="Arial, sans-serif" font-size="12" fill="#10b981">↗ 2 new hubs</text>
  
  <!-- Chart Area -->
  <rect x="300" y="300" width="560" height="250" fill="#1e293b" rx="8" stroke="#334155"/>
  <text x="320" y="330" font-family="Arial, sans-serif" font-size="18" font-weight="bold" fill="white">
    Student Enrollment Trend
  </text>
  
  <!-- Simple chart representation -->
  <path d="M 340 500 L 380 480 L 420 460 L 460 440 L 500 420 L 540 400 L 580 380 L 620 360 L 660 340 L 700 320 L 740 310 L 780 300" 
        stroke="#3b82f6" stroke-width="3" fill="none"/>
  
  <!-- Chart grid lines -->
  <line x1="320" y1="350" x2="840" y2="350" stroke="#374151" stroke-width="1"/>
  <line x1="320" y1="400" x2="840" y2="400" stroke="#374151" stroke-width="1"/>
  <line x1="320" y1="450" x2="840" y2="450" stroke="#374151" stroke-width="1"/>
  <line x1="320" y1="500" x2="840" y2="500" stroke="#374151" stroke-width="1"/>
  
  <!-- Recent Activity -->
  <rect x="880" y="300" width="280" height="250" fill="#1e293b" rx="8" stroke="#334155"/>
  <text x="900" y="330" font-family="Arial, sans-serif" font-size="18" font-weight="bold" fill="white">
    Recent Activity
  </text>
  
  <!-- Activity items -->
  <text x="910" y="360" font-family="Arial, sans-serif" font-size="12" fill="#94a3b8">
    • New student registration: Sarah M.
  </text>
  <text x="910" y="380" font-family="Arial, sans-serif" font-size="12" fill="#94a3b8">
    • Course completed: Digital Marketing
  </text>
  <text x="910" y="400" font-family="Arial, sans-serif" font-size="12" fill="#94a3b8">
    • New hub opened in Nairobi
  </text>
  <text x="910" y="420" font-family="Arial, sans-serif" font-size="12" fill="#94a3b8">
    • Mentor assigned to 5 students
  </text>
  <text x="910" y="440" font-family="Arial, sans-serif" font-size="12" fill="#94a3b8">
    • Certificate issued to Ahmed K.
  </text>
  
  <!-- System Status -->
  <rect x="300" y="570" width="860" height="80" fill="#1e293b" rx="8" stroke="#334155"/>
  <text x="320" y="595" font-family="Arial, sans-serif" font-size="16" font-weight="bold" fill="white">
    System Status
  </text>
  <circle cx="350" cy="620" r="6" fill="#10b981"/>
  <text x="370" y="625" font-family="Arial, sans-serif" font-size="12" fill="#94a3b8">
    All systems operational
  </text>
  <text x="600" y="625" font-family="Arial, sans-serif" font-size="12" fill="#64748b">
    Last updated: 2 minutes ago
  </text>
</svg>