<!-- Student Dashboard Mockup SVG -->
<svg width="1200" height="800" xmlns="http://www.w3.org/2000/svg">
  <!-- Background -->
  <rect width="1200" height="800" fill="#f8fafc"/>
  
  <!-- Header -->
  <rect x="0" y="0" width="1200" height="80" fill="#1e293b"/>
  <text x="40" y="50" font-family="Arial, sans-serif" font-size="24" font-weight="bold" fill="white">
    DEH Dashboard
  </text>
  <circle cx="1120" cy="40" r="20" fill="#3b82f6"/>
  <text x="1120" y="45" font-family="Arial, sans-serif" font-size="12" text-anchor="middle" fill="white">
    MH
  </text>
  
  <!-- Sidebar -->
  <rect x="0" y="80" width="250" height="720" fill="#334155"/>
  <text x="20" y="120" font-family="Arial, sans-serif" font-size="16" fill="#cbd5e1">Navigation</text>
  <rect x="20" y="140" width="210" height="40" fill="#475569" rx="4"/>
  <text x="35" y="165" font-family="Arial, sans-serif" font-size="14" fill="white">📚 Courses</text>
  
  <!-- Main Content Area -->
  <rect x="270" y="100" width="900" height="680" fill="white"/>
  
  <!-- Welcome Section -->
  <text x="300" y="140" font-family="Arial, sans-serif" font-size="28" font-weight="bold" fill="#1e293b">
    Welcome back, Student!
  </text>
  <text x="300" y="170" font-family="Arial, sans-serif" font-size="16" fill="#64748b">
    Continue your digital skills journey
  </text>
  
  <!-- Course Cards Grid -->
  <!-- Card 1 -->
  <rect x="300" y="200" width="260" height="180" fill="#f1f5f9" rx="8" stroke="#e2e8f0"/>
  <rect x="310" y="210" width="240" height="100" fill="#3b82f6" rx="4"/>
  <text x="430" y="265" font-family="Arial, sans-serif" font-size="16" font-weight="bold" text-anchor="middle" fill="white">
    Digital Literacy
  </text>
  <text x="320" y="340" font-family="Arial, sans-serif" font-size="14" fill="#475569">
    Progress: 65%
  </text>
  <rect x="320" y="350" width="200" height="8" fill="#e2e8f0" rx="4"/>
  <rect x="320" y="350" width="130" height="8" fill="#10b981" rx="4"/>
  
  <!-- Card 2 -->
  <rect x="580" y="200" width="260" height="180" fill="#f1f5f9" rx="8" stroke="#e2e8f0"/>
  <rect x="590" y="210" width="240" height="100" fill="#8b5cf6" rx="4"/>
  <text x="710" y="265" font-family="Arial, sans-serif" font-size="16" font-weight="bold" text-anchor="middle" fill="white">
    Coding Basics
  </text>
  <text x="600" y="340" font-family="Arial, sans-serif" font-size="14" fill="#475569">
    Progress: 42%
  </text>
  <rect x="600" y="350" width="200" height="8" fill="#e2e8f0" rx="4"/>
  <rect x="600" y="350" width="84" height="8" fill="#f59e0b" rx="4"/>
  
  <!-- Card 3 -->
  <rect x="860" y="200" width="260" height="180" fill="#f1f5f9" rx="8" stroke="#e2e8f0"/>
  <rect x="870" y="210" width="240" height="100" fill="#ef4444" rx="4"/>
  <text x="990" y="265" font-family="Arial, sans-serif" font-size="16" font-weight="bold" text-anchor="middle" fill="white">
    Digital Marketing
  </text>
  <text x="880" y="340" font-family="Arial, sans-serif" font-size="14" fill="#475569">
    Progress: 23%
  </text>
  <rect x="880" y="350" width="200" height="8" fill="#e2e8f0" rx="4"/>
  <rect x="880" y="350" width="46" height="8" fill="#ef4444" rx="4"/>
  
  <!-- Stats Section -->
  <text x="300" y="440" font-family="Arial, sans-serif" font-size="20" font-weight="bold" fill="#1e293b">
    Your Progress
  </text>
  
  <rect x="300" y="460" width="240" height="100" fill="#f8fafc" rx="8" stroke="#e2e8f0"/>
  <text x="320" y="485" font-family="Arial, sans-serif" font-size="14" fill="#64748b">Courses Enrolled</text>
  <text x="320" y="520" font-family="Arial, sans-serif" font-size="32" font-weight="bold" fill="#3b82f6">4</text>
  
  <rect x="560" y="460" width="240" height="100" fill="#f8fafc" rx="8" stroke="#e2e8f0"/>
  <text x="580" y="485" font-family="Arial, sans-serif" font-size="14" fill="#64748b">Certificates Earned</text>
  <text x="580" y="520" font-family="Arial, sans-serif" font-size="32" font-weight="bold" fill="#10b981">2</text>
  
  <rect x="820" y="460" width="240" height="100" fill="#f8fafc" rx="8" stroke="#e2e8f0"/>
  <text x="840" y="485" font-family="Arial, sans-serif" font-size="14" fill="#64748b">Study Hours</text>
  <text x="840" y="520" font-family="Arial, sans-serif" font-size="32" font-weight="bold" fill="#8b5cf6">127</text>
</svg>